<mxfile host="app.diagrams.net" agent="Mozilla/5.0 (Windows NT 10.0; Win64; x64) AppleWebKit/537.36 (KHTML, like Gecko) Chrome/131.0.0.0 Safari/537.36" version="24.9.1">
  <diagram name="Seite-1" id="K70xGbPAnUhQWx4gZ4KT">
    <mxGraphModel dx="981" dy="880" grid="1" gridSize="10" guides="1" tooltips="1" connect="1" arrows="1" fold="1" page="1" pageScale="1" pageWidth="1654" pageHeight="1169" math="0" shadow="0">
      <root>
        <mxCell id="0" />
        <mxCell id="1" parent="0" />
        <mxCell id="NrakXVeBF_DzGBcXFqaL-1" value="Sequenz" style="rounded=0;whiteSpace=wrap;html=1;fillColor=#FFE599;strokeColor=#d6b656;" vertex="1" parent="1">
          <mxGeometry x="320" y="280" width="320" height="40" as="geometry" />
        </mxCell>
        <mxCell id="NrakXVeBF_DzGBcXFqaL-2" value="" style="rounded=0;whiteSpace=wrap;html=1;fillColor=#fff2cc;strokeColor=#d6b656;" vertex="1" parent="1">
          <mxGeometry x="320" y="320" width="320" height="90" as="geometry" />
        </mxCell>
        <mxCell id="NrakXVeBF_DzGBcXFqaL-5" value="EingÃ¤nge:" style="text;html=1;align=left;verticalAlign=middle;whiteSpace=wrap;rounded=0;fontStyle=4" vertex="1" parent="1">
          <mxGeometry x="330" y="320" width="70" height="30" as="geometry" />
        </mxCell>
        <mxCell id="NrakXVeBF_DzGBcXFqaL-7" value="" style="rounded=0;whiteSpace=wrap;html=1;fillColor=#fff2cc;strokeColor=#d6b656;" vertex="1" parent="1">
          <mxGeometry x="320" y="410" width="160" height="100" as="geometry" />
        </mxCell>
        <mxCell id="NrakXVeBF_DzGBcXFqaL-8" value="" style="rounded=0;whiteSpace=wrap;html=1;fillColor=#fff2cc;strokeColor=#d6b656;" vertex="1" parent="1">
          <mxGeometry x="480" y="410" width="160" height="100" as="geometry" />
        </mxCell>
        <mxCell id="NrakXVeBF_DzGBcXFqaL-9" value="Methoden:" style="text;html=1;align=left;verticalAlign=middle;whiteSpace=wrap;rounded=0;fontStyle=4" vertex="1" parent="1">
          <mxGeometry x="330" y="410" width="70" height="30" as="geometry" />
        </mxCell>
        <mxCell id="NrakXVeBF_DzGBcXFqaL-10" value="Eigenschaften:" style="text;html=1;align=left;verticalAlign=middle;whiteSpace=wrap;rounded=0;fontStyle=4" vertex="1" parent="1">
          <mxGeometry x="490" y="410" width="70" height="30" as="geometry" />
        </mxCell>
        <mxCell id="NrakXVeBF_DzGBcXFqaL-11" value="&lt;font style=&quot;font-size: 10px;&quot;&gt;M_Start&lt;/font&gt;" style="rounded=0;whiteSpace=wrap;html=1;fillColor=#FFE599;strokeColor=#d6b656;fontSize=14;" vertex="1" parent="1">
          <mxGeometry x="330" y="440" width="140" height="25" as="geometry" />
        </mxCell>
        <mxCell id="NrakXVeBF_DzGBcXFqaL-12" value="&lt;font style=&quot;font-size: 10px;&quot;&gt;M_Stopp&lt;/font&gt;" style="rounded=0;whiteSpace=wrap;html=1;fillColor=#FFE599;strokeColor=#d6b656;fontSize=14;" vertex="1" parent="1">
          <mxGeometry x="330" y="470" width="140" height="25" as="geometry" />
        </mxCell>
        <mxCell id="NrakXVeBF_DzGBcXFqaL-13" value="&lt;font style=&quot;font-size: 10px;&quot;&gt;P_State (GET)&lt;/font&gt;" style="rounded=0;whiteSpace=wrap;html=1;fillColor=#FFE599;strokeColor=#d6b656;fontSize=14;" vertex="1" parent="1">
          <mxGeometry x="490" y="440" width="140" height="25" as="geometry" />
        </mxCell>
        <mxCell id="NrakXVeBF_DzGBcXFqaL-14" value="" style="rounded=0;whiteSpace=wrap;html=1;fillColor=none;strokeColor=#d6b656;" vertex="1" parent="1">
          <mxGeometry x="320" y="510" width="320" height="190" as="geometry" />
        </mxCell>
        <mxCell id="NrakXVeBF_DzGBcXFqaL-18" value="" style="endArrow=none;html=1;rounded=0;strokeWidth=2;" edge="1" parent="1">
          <mxGeometry width="50" height="50" relative="1" as="geometry">
            <mxPoint x="330" y="360" as="sourcePoint" />
            <mxPoint x="310" y="360" as="targetPoint" />
          </mxGeometry>
        </mxCell>
        <mxCell id="NrakXVeBF_DzGBcXFqaL-19" value="Skill_A" style="text;html=1;align=left;verticalAlign=middle;whiteSpace=wrap;rounded=0;fontStyle=0;fontSize=10;" vertex="1" parent="1">
          <mxGeometry x="334" y="355" width="66" height="10" as="geometry" />
        </mxCell>
        <mxCell id="NrakXVeBF_DzGBcXFqaL-25" value="" style="endArrow=none;html=1;rounded=0;strokeWidth=2;" edge="1" parent="1">
          <mxGeometry width="50" height="50" relative="1" as="geometry">
            <mxPoint x="330" y="385" as="sourcePoint" />
            <mxPoint x="310" y="385" as="targetPoint" />
          </mxGeometry>
        </mxCell>
        <mxCell id="NrakXVeBF_DzGBcXFqaL-26" value="Parameter" style="text;html=1;align=left;verticalAlign=middle;whiteSpace=wrap;rounded=0;fontStyle=0;fontSize=10;" vertex="1" parent="1">
          <mxGeometry x="334" y="380" width="66" height="10" as="geometry" />
        </mxCell>
        <mxCell id="NrakXVeBF_DzGBcXFqaL-27" value=":I_Skill1" style="text;html=1;align=left;verticalAlign=middle;whiteSpace=wrap;rounded=0;fontStyle=2;fontSize=10;" vertex="1" parent="1">
          <mxGeometry x="400" y="355" width="56" height="10" as="geometry" />
        </mxCell>
        <mxCell id="NrakXVeBF_DzGBcXFqaL-28" value=":sProzessparameter" style="text;html=1;align=left;verticalAlign=middle;whiteSpace=wrap;rounded=0;fontStyle=2;fontSize=10;" vertex="1" parent="1">
          <mxGeometry x="400" y="380" width="100" height="10" as="geometry" />
        </mxCell>
        <mxCell id="NrakXVeBF_DzGBcXFqaL-33" style="edgeStyle=orthogonalEdgeStyle;rounded=0;orthogonalLoop=1;jettySize=auto;html=1;endArrow=none;endFill=0;" edge="1" parent="1" source="NrakXVeBF_DzGBcXFqaL-30" target="NrakXVeBF_DzGBcXFqaL-31">
          <mxGeometry relative="1" as="geometry" />
        </mxCell>
        <mxCell id="NrakXVeBF_DzGBcXFqaL-30" value="&lt;font style=&quot;font-size: 10px;&quot;&gt;Init&lt;/font&gt;" style="rounded=0;whiteSpace=wrap;html=1;fillColor=#f5f5f5;strokeColor=#666666;fontSize=14;fontColor=#333333;" vertex="1" parent="1">
          <mxGeometry x="330" y="530" width="100" height="25" as="geometry" />
        </mxCell>
        <mxCell id="NrakXVeBF_DzGBcXFqaL-34" style="edgeStyle=orthogonalEdgeStyle;rounded=0;orthogonalLoop=1;jettySize=auto;html=1;endArrow=none;endFill=0;" edge="1" parent="1" source="NrakXVeBF_DzGBcXFqaL-31" target="NrakXVeBF_DzGBcXFqaL-32">
          <mxGeometry relative="1" as="geometry" />
        </mxCell>
        <mxCell id="NrakXVeBF_DzGBcXFqaL-46" style="edgeStyle=orthogonalEdgeStyle;rounded=0;orthogonalLoop=1;jettySize=auto;html=1;entryX=0;entryY=0.5;entryDx=0;entryDy=0;endArrow=none;endFill=0;" edge="1" parent="1" source="NrakXVeBF_DzGBcXFqaL-31" target="NrakXVeBF_DzGBcXFqaL-45">
          <mxGeometry relative="1" as="geometry">
            <Array as="points">
              <mxPoint x="440" y="605" />
              <mxPoint x="440" y="605" />
            </Array>
          </mxGeometry>
        </mxCell>
        <mxCell id="NrakXVeBF_DzGBcXFqaL-48" style="edgeStyle=orthogonalEdgeStyle;rounded=0;orthogonalLoop=1;jettySize=auto;html=1;entryX=0;entryY=0.5;entryDx=0;entryDy=0;endArrow=none;endFill=0;" edge="1" parent="1" source="NrakXVeBF_DzGBcXFqaL-31" target="NrakXVeBF_DzGBcXFqaL-47">
          <mxGeometry relative="1" as="geometry">
            <Array as="points">
              <mxPoint x="440" y="595" />
              <mxPoint x="440" y="595" />
            </Array>
          </mxGeometry>
        </mxCell>
        <mxCell id="NrakXVeBF_DzGBcXFqaL-31" value="&lt;span style=&quot;font-size: 10px;&quot;&gt;Schritt_1&lt;/span&gt;" style="rounded=0;whiteSpace=wrap;html=1;fillColor=#f5f5f5;strokeColor=#666666;fontSize=14;fontColor=#333333;" vertex="1" parent="1">
          <mxGeometry x="330" y="585" width="100" height="25" as="geometry" />
        </mxCell>
        <mxCell id="NrakXVeBF_DzGBcXFqaL-44" style="edgeStyle=orthogonalEdgeStyle;rounded=0;orthogonalLoop=1;jettySize=auto;html=1;entryX=0;entryY=0.5;entryDx=0;entryDy=0;endArrow=none;endFill=0;" edge="1" parent="1" source="NrakXVeBF_DzGBcXFqaL-32" target="NrakXVeBF_DzGBcXFqaL-43">
          <mxGeometry relative="1" as="geometry" />
        </mxCell>
        <mxCell id="NrakXVeBF_DzGBcXFqaL-32" value="&lt;font style=&quot;font-size: 10px;&quot;&gt;Finished&lt;/font&gt;" style="rounded=0;whiteSpace=wrap;html=1;fillColor=#f5f5f5;strokeColor=#666666;fontSize=14;fontColor=#333333;" vertex="1" parent="1">
          <mxGeometry x="330" y="640" width="100" height="25" as="geometry" />
        </mxCell>
        <mxCell id="NrakXVeBF_DzGBcXFqaL-37" value="" style="endArrow=classic;html=1;rounded=0;exitX=0.5;exitY=1;exitDx=0;exitDy=0;edgeStyle=orthogonalEdgeStyle;endFill=1;endSize=2;" edge="1" parent="1" source="NrakXVeBF_DzGBcXFqaL-32">
          <mxGeometry width="50" height="50" relative="1" as="geometry">
            <mxPoint x="390" y="690" as="sourcePoint" />
            <mxPoint x="400" y="690" as="targetPoint" />
            <Array as="points">
              <mxPoint x="380" y="690" />
            </Array>
          </mxGeometry>
        </mxCell>
        <mxCell id="NrakXVeBF_DzGBcXFqaL-38" value="" style="endArrow=none;html=1;rounded=0;entryX=0.406;entryY=0.316;entryDx=0;entryDy=0;entryPerimeter=0;" edge="1" parent="1">
          <mxGeometry width="50" height="50" relative="1" as="geometry">
            <mxPoint x="375.04" y="570" as="sourcePoint" />
            <mxPoint x="384.96" y="570.0399999999998" as="targetPoint" />
          </mxGeometry>
        </mxCell>
        <mxCell id="NrakXVeBF_DzGBcXFqaL-39" value="" style="endArrow=none;html=1;rounded=0;entryX=0.406;entryY=0.316;entryDx=0;entryDy=0;entryPerimeter=0;" edge="1" parent="1">
          <mxGeometry width="50" height="50" relative="1" as="geometry">
            <mxPoint x="375.04" y="625" as="sourcePoint" />
            <mxPoint x="384.96" y="625" as="targetPoint" />
          </mxGeometry>
        </mxCell>
        <mxCell id="NrakXVeBF_DzGBcXFqaL-40" value="" style="endArrow=none;html=1;rounded=0;entryX=0.406;entryY=0.316;entryDx=0;entryDy=0;entryPerimeter=0;" edge="1" parent="1">
          <mxGeometry width="50" height="50" relative="1" as="geometry">
            <mxPoint x="375.04" y="680" as="sourcePoint" />
            <mxPoint x="384.96" y="680" as="targetPoint" />
          </mxGeometry>
        </mxCell>
        <mxCell id="NrakXVeBF_DzGBcXFqaL-41" value="M_Start" style="text;html=1;align=left;verticalAlign=middle;whiteSpace=wrap;rounded=0;fontStyle=0;fontSize=10;" vertex="1" parent="1">
          <mxGeometry x="390" y="565" width="66" height="10" as="geometry" />
        </mxCell>
        <mxCell id="NrakXVeBF_DzGBcXFqaL-42" value="M_Stop" style="text;html=1;align=left;verticalAlign=middle;whiteSpace=wrap;rounded=0;fontStyle=0;fontSize=10;" vertex="1" parent="1">
          <mxGeometry x="390" y="675" width="66" height="10" as="geometry" />
        </mxCell>
        <mxCell id="NrakXVeBF_DzGBcXFqaL-43" value="&lt;font&gt;M_Stop&lt;/font&gt;" style="rounded=0;whiteSpace=wrap;html=1;align=left;fontSize=6;" vertex="1" parent="1">
          <mxGeometry x="456" y="647.5" width="54" height="10" as="geometry" />
        </mxCell>
        <mxCell id="NrakXVeBF_DzGBcXFqaL-45" value="&lt;font&gt;Skill_A.M_Start&lt;/font&gt;" style="rounded=0;whiteSpace=wrap;html=1;align=left;fontSize=6;" vertex="1" parent="1">
          <mxGeometry x="456" y="600" width="54" height="10" as="geometry" />
        </mxCell>
        <mxCell id="NrakXVeBF_DzGBcXFqaL-47" value="&lt;font&gt;Zuweisung&lt;/font&gt;" style="rounded=0;whiteSpace=wrap;html=1;align=left;fontSize=6;" vertex="1" parent="1">
          <mxGeometry x="456" y="590" width="54" height="10" as="geometry" />
        </mxCell>
        <mxCell id="NrakXVeBF_DzGBcXFqaL-49" value="&amp;nbsp;Skill_A.P_Prozessmarameter :=&amp;nbsp;&lt;span style=&quot;background-color: initial;&quot;&gt;Parameter&lt;/span&gt;" style="rounded=0;whiteSpace=wrap;html=1;fontSize=6;align=left;verticalAlign=middle;dashed=1;" vertex="1" parent="1">
          <mxGeometry x="500" y="550" width="120" height="25" as="geometry" />
        </mxCell>
        <mxCell id="NrakXVeBF_DzGBcXFqaL-52" value="" style="endArrow=none;dashed=1;html=1;rounded=0;exitX=0.481;exitY=0.012;exitDx=0;exitDy=0;entryX=0;entryY=0.5;entryDx=0;entryDy=0;exitPerimeter=0;" edge="1" parent="1" source="NrakXVeBF_DzGBcXFqaL-47" target="NrakXVeBF_DzGBcXFqaL-49">
          <mxGeometry width="50" height="50" relative="1" as="geometry">
            <mxPoint x="460" y="590" as="sourcePoint" />
            <mxPoint x="510" y="540" as="targetPoint" />
          </mxGeometry>
        </mxCell>
        <mxCell id="NrakXVeBF_DzGBcXFqaL-60" value="Definiert durch Schnitstelle&amp;nbsp;&lt;div&gt;&quot;I_Sequenz&quot;&lt;/div&gt;" style="text;html=1;align=center;verticalAlign=middle;whiteSpace=wrap;rounded=0;rotation=-90;fontSize=8;" vertex="1" parent="1">
          <mxGeometry x="600" y="440" width="150" height="30" as="geometry" />
        </mxCell>
        <mxCell id="NrakXVeBF_DzGBcXFqaL-61" value="" style="strokeWidth=2;html=1;shape=mxgraph.flowchart.annotation_1;align=left;pointerEvents=1;rotation=-180;" vertex="1" parent="1">
          <mxGeometry x="650" y="410" width="10" height="100" as="geometry" />
        </mxCell>
      </root>
    </mxGraphModel>
  </diagram>
</mxfile>
